# xmcd CD database file
#
# Track frame offsets:
#	150
#	9470
#	21681
#	51018
#	61986
#
# Disc length: 1086 seconds
#
# Revision: 0
# Processed by: cddbd v1.5.1PL0 Copyright (c) Steve Scherf et al.
# Submitted via: CDex 1.51
#
DISCID=3c043c05
DTITLE=detroit7 - EP Vol.1
DYEAR=2005
DGENRE=ロック (日本)
TTITLE0=LOVE&CONFUSED
TTITLE1=落涙
TTITLE2=Beautiful Song
TTITLE3=Baby in Galaxy
TTITLE4=太陽を溶かした海
EXTD=YEAR: 2005
EXTT0=
EXTT1=
EXTT2=
EXTT3=
EXTT4=
PLAYORDER=
